<?xml version="1.0" standalone="no"?>
<!DOCTYPE svg PUBLIC "-//W3C//DTD SVG 20010904//EN"
 "http://www.w3.org/TR/2001/REC-SVG-20010904/DTD/svg10.dtd">
<svg version="1.0" xmlns="http://www.w3.org/2000/svg"
 width="397.000000pt" height="397.000000pt" viewBox="0 0 397.000000 397.000000"
 preserveAspectRatio="xMidYMid meet">
<metadata>
Created by potrace 1.14, written by Peter Selinger 2001-2017
</metadata>
<g transform="translate(0.000000,397.000000) scale(0.100000,-0.100000)"
fill="#000000" stroke="none">
<path d="M670 2856 c0 -13 -7 -29 -15 -36 -9 -7 -13 -15 -10 -18 3 -3 -6 -19
-19 -36 -13 -17 -26 -41 -30 -54 -10 -30 -61 -55 -95 -47 -24 6 -70 36 -103
67 -61 59 -177 60 -255 1 -39 -29 -40 -39 -9 -102 38 -75 109 -149 149 -155 7
-1 19 -6 27 -11 8 -5 53 -10 99 -10 84 0 85 0 97 -30 6 -16 15 -54 18 -83 3
-30 11 -73 16 -95 5 -23 11 -53 14 -67 3 -14 13 -56 21 -95 11 -47 14 -90 10
-131 -7 -64 7 -94 41 -94 8 0 16 0 19 0 3 0 29 -9 57 -20 29 -11 62 -21 73
-23 32 -4 41 -14 60 -64 10 -26 22 -50 26 -53 12 -8 79 -139 79 -154 0 -25 75
-51 101 -35 11 7 8 13 -14 32 -35 27 -33 56 8 144 31 67 43 104 51 153 3 19 7
40 9 46 2 6 -1 17 -5 25 -7 11 -10 9 -16 -6 -4 -11 -14 -38 -24 -60 -9 -22
-16 -48 -14 -58 4 -31 -20 -12 -32 23 -10 29 -8 48 11 117 13 46 23 84 23 86
0 1 5 20 10 42 6 22 13 67 17 100 4 32 8 62 10 65 2 4 6 19 9 35 15 81 29 142
37 157 12 22 59 47 77 41 17 -7 61 -95 66 -135 7 -52 17 -70 36 -65 30 8 39
-6 44 -76 7 -76 29 -118 61 -114 14 1 21 13 27 43 3 23 18 65 32 93 14 28 26
58 26 68 0 13 9 8 36 -19 28 -30 39 -35 57 -29 19 7 23 19 30 87 10 104 5 120
-40 139 -58 24 -95 29 -272 34 l-44 1 42 30 c60 44 79 65 142 157 69 102 69
125 0 156 -110 48 -196 16 -303 -113 -33 -41 -67 -36 -85 10 -7 18 -21 34 -32
37 -12 3 -19 9 -16 13 8 13 -18 38 -68 65 -47 26 -70 29 -173 25 -23 -1 -50 3
-62 9 -29 15 -32 14 -32 -13z m242 -61 c6 -14 15 -25 20 -25 5 0 20 -11 34
-25 l25 -26 -33 -31 c-31 -29 -33 -35 -34 -102 -2 -92 -10 -129 -40 -193 -32
-67 -36 -89 -19 -103 10 -9 12 -17 5 -30 -5 -10 -11 -32 -12 -49 -1 -17 -5
-31 -9 -31 -11 0 -57 76 -67 111 -9 36 -9 58 4 98 10 33 -11 19 -32 -21 -29
-56 -24 -191 7 -173 5 4 6 11 3 17 -4 6 -3 8 3 5 5 -3 8 -26 6 -51 l-4 -45 31
4 c36 4 82 -8 59 -17 -8 -3 -51 -6 -97 -6 -46 -1 -88 -5 -94 -8 -7 -4 -8 -2
-4 4 4 7 14 12 22 12 18 0 18 14 -1 30 -8 7 -12 16 -9 21 3 5 8 22 10 37 2 15
8 45 12 67 6 26 4 53 -5 79 -7 21 -11 42 -8 46 3 5 1 11 -4 15 -5 3 -10 13
-10 23 1 24 -19 103 -32 128 -6 12 -26 28 -45 37 -19 9 -34 21 -34 27 0 6 25
36 55 66 30 31 55 62 55 69 0 18 133 63 188 64 36 1 44 -3 54 -24z m33 -805
c7 -30 -1 -70 -13 -70 -4 0 -23 14 -42 30 l-35 29 23 21 c12 11 22 25 22 31 0
22 39 -13 45 -41z m-267 10 c15 -25 15 -36 -2 -32 -23 4 -41 -27 -28 -48 13
-22 2 -33 -23 -24 -14 6 -16 15 -12 43 5 30 13 67 16 79 4 11 39 -2 49 -18z"/>
<path d="M747 2606 c3 -13 -2 -37 -11 -54 -18 -34 -13 -41 46 -65 40 -17 49
-12 62 30 5 17 -3 32 -37 67 -49 51 -66 58 -60 22z"/>
<path d="M1669 2388 c-1 -2 -3 -12 -4 -23 -1 -11 -5 -42 -9 -70 -8 -59 -12
-118 -31 -465 -3 -58 -7 -124 -8 -147 -2 -24 -3 -43 -3 -43 1 -1 18 -3 39 -6
42 -6 46 -1 50 67 2 25 6 49 9 54 3 6 9 29 13 52 8 50 25 66 26 26 2 -67 18
-162 30 -185 7 -13 19 -16 52 -14 23 2 43 4 43 5 1 1 -2 19 -7 41 -9 42 -14
70 -24 155 -10 84 -15 118 -27 171 -11 55 -12 53 64 262 28 78 29 84 13 96
-15 11 -41 13 -76 7 -4 -1 -59 -146 -65 -171 0 -3 -5 -16 -11 -30 -6 -14 -13
-34 -16 -45 -3 -11 -4 14 -1 54 3 41 7 77 8 80 2 4 7 34 10 69 l7 62 -41 0
c-22 0 -41 -1 -41 -2z"/>
<path d="M1141 2332 c-46 -44 -46 -64 1 -114 16 -18 39 -51 50 -75 15 -32 26
-43 43 -43 44 0 59 46 34 105 -7 17 -13 32 -14 35 -24 95 -30 109 -52 119 -20
9 -28 6 -62 -27z"/>
<path d="M1929 2343 c-1 -10 -3 -43 -4 -73 -2 -30 -6 -95 -9 -145 -8 -116 -18
-342 -20 -425 l-1 -65 97 -2 96 -2 4 50 c1 27 2 54 0 59 -2 6 -29 10 -59 10
l-55 0 7 88 c4 48 9 152 11 232 3 80 6 174 8 210 3 70 -2 80 -46 80 -20 0 -28
-5 -29 -17z"/>
<path d="M2149 2336 c-2 -2 -6 -75 -13 -226 -4 -80 -9 -190 -12 -245 -5 -93
-6 -176 -5 -217 1 -14 9 -17 44 -15 l42 3 2 44 c3 96 13 372 18 511 l5 145
-40 1 c-22 0 -40 0 -41 -1z"/>
<path d="M2275 2307 c-2 -12 -4 -35 -3 -52 1 -16 -2 -115 -6 -220 -11 -247
-13 -377 -8 -392 4 -14 70 -15 78 -1 3 5 7 48 9 96 7 163 8 173 16 165 4 -4
10 -21 13 -38 9 -47 23 -106 36 -150 7 -22 12 -42 12 -45 -1 -31 66 -53 92
-31 16 14 11 640 -6 656 -14 14 -68 16 -69 3 0 -7 -1 -94 -1 -193 0 -171 -4
-187 -23 -90 -2 11 -6 29 -9 40 -14 54 -46 219 -46 236 0 21 -8 26 -52 33 -23
4 -29 0 -33 -17z"/>
<path d="M2566 2284 c-8 -8 -13 -23 -11 -34 7 -35 8 -167 2 -177 -4 -6 -4 -13
0 -16 3 -4 7 -96 8 -205 1 -110 5 -204 8 -209 7 -11 76 -16 78 -5 1 4 2 27 3
52 2 25 6 63 11 85 5 22 9 43 10 47 1 24 14 12 19 -19 4 -21 14 -68 23 -104
l16 -66 38 0 c49 0 49 -5 4 189 -20 84 -37 161 -39 170 -2 9 9 63 26 120 16
57 30 108 31 113 2 6 6 15 9 20 12 19 -8 35 -45 37 -21 1 -40 -1 -43 -4 -3 -3
-18 -51 -33 -107 -16 -56 -30 -104 -33 -106 -2 -2 -4 41 -3 97 0 55 -4 107
-10 114 -15 21 -53 25 -69 8z"/>
<path d="M2849 2272 l-26 -3 3 -277 c2 -152 4 -296 4 -320 0 -41 1 -43 28 -38
15 2 30 5 33 5 3 1 5 51 4 111 -2 104 7 142 18 83 11 -60 44 -172 56 -191 12
-19 66 -9 65 12 -1 9 3 16 8 16 7 0 7 5 1 13 -5 6 -8 139 -7 295 l1 282 -37 0
-38 0 2 -161 c1 -164 -6 -206 -20 -121 -4 26 -9 52 -10 57 -8 27 -22 105 -30
167 -8 58 -21 75 -55 70z"/>
<path d="M3082 2246 c-4 -6 -7 -145 -7 -309 0 -345 -17 -307 138 -305 59 1 98
6 98 12 5 39 4 78 -2 87 -4 8 -32 11 -76 10 l-68 -2 2 53 c1 29 2 56 2 59 1 4
18 6 39 6 99 0 92 -5 92 68 0 73 8 67 -92 68 -21 1 -39 3 -39 6 -1 3 -2 25 -3
48 l-2 41 67 -4 c38 -2 71 0 73 5 9 13 14 128 7 139 -3 5 -42 13 -86 16 -44 3
-92 8 -108 10 -15 2 -31 -2 -35 -8z"/>
<path d="M3363 2217 c-4 -7 -8 -141 -10 -298 l-3 -286 45 0 c25 0 45 3 46 6 3
18 7 83 8 139 1 78 18 82 37 7 10 -37 15 -64 19 -87 7 -51 20 -63 69 -63 25
-1 46 1 46 5 -1 23 -42 195 -51 211 -8 16 -7 24 5 37 34 38 44 107 32 212 -2
14 -4 33 -5 42 -3 37 -44 69 -96 74 -27 2 -69 6 -92 9 -26 2 -46 -1 -50 -8z
m140 -152 c8 -8 15 -30 15 -49 0 -25 -6 -37 -24 -47 -33 -17 -46 -2 -46 53 0
23 1 46 1 51 2 13 39 8 54 -8z"/>
<path d="M1112 2187 c-7 -8 -9 -16 -6 -20 6 -5 7 -13 19 -107 10 -78 13 -208
4 -253 -3 -20 -2 -40 2 -43 11 -7 28 36 35 90 9 61 4 223 -8 241 -3 6 -9 28
-12 50 -8 47 -19 61 -34 42z"/>
<path d="M1293 2054 c-3 -9 0 -32 7 -51 6 -20 13 -48 14 -64 3 -36 13 -46 33
-33 32 20 36 58 11 110 -24 51 -53 68 -65 38z"/>
<path d="M1236 1892 c1 -77 -2 -159 -6 -183 -18 -96 -19 -110 -7 -106 7 2 21
41 33 86 16 65 20 107 18 190 -4 129 -7 145 -25 149 -12 2 -14 -20 -13 -136z"/>
<path d="M1422 1954 c-7 -12 -6 -32 4 -63 8 -25 14 -58 14 -73 0 -83 48 -74
62 12 3 23 -13 90 -22 90 -5 0 -10 10 -12 22 -4 28 -33 35 -46 12z"/>
<path d="M1099 1501 c-1 -41 -1 -93 0 -134 l1 -38 55 2 c61 3 67 5 83 35 8 16
7 27 -4 49 -11 21 -11 31 -3 42 14 16 -3 62 -23 64 -106 8 -108 8 -109 -20z
m121 -12 c16 -25 -19 -50 -64 -47 -38 3 -40 5 -41 35 l-1 32 49 -3 c28 -2 52
-9 57 -17z m-2 -84 c11 -10 11 -17 3 -34 -7 -11 -17 -21 -24 -22 -7 -1 -24 -2
-39 -3 -15 -2 -31 0 -35 3 -12 9 -12 65 1 73 15 10 78 -1 94 -17z"/>
<path d="M1264 1522 c-9 -6 -12 -163 -4 -187 2 -5 6 10 9 35 6 43 7 44 42 46
54 3 62 -6 68 -79 1 -5 5 -6 11 -2 11 7 3 77 -11 85 -6 4 -4 12 6 20 19 16 20
54 1 70 -17 13 -108 22 -122 12z m114 -21 c1 -1 2 -12 2 -25 0 -31 -12 -38
-66 -42 -42 -4 -43 -3 -41 29 1 17 6 35 12 40 8 6 59 4 93 -2z"/>
<path d="M1432 1521 c-4 -3 -8 -46 -7 -96 l0 -90 68 -1 c37 -1 65 1 61 5 -3 3
-24 7 -47 7 -23 1 -47 2 -54 3 -7 1 -12 17 -11 39 l0 38 54 -1 c70 -2 71 13 2
17 -51 3 -53 4 -53 33 0 29 1 30 60 36 33 3 58 7 55 9 -9 5 -120 6 -128 1z"/>
<path d="M1579 1510 c0 -11 -1 -55 -2 -97 l0 -78 66 -2 c37 -1 67 2 67 7 0 4
-22 7 -50 6 -60 -3 -64 0 -67 42 -2 34 -2 35 70 35 20 0 37 3 37 8 0 5 -22 9
-50 9 -27 0 -50 3 -51 8 -9 65 -11 62 59 62 83 0 74 12 -13 16 -59 4 -65 2
-66 -16z"/>
<path d="M1734 1518 c-3 -4 20 -8 50 -8 31 0 56 -4 56 -8 0 -5 -25 -41 -55
-81 -31 -39 -53 -76 -50 -81 8 -12 135 -13 135 -2 0 5 -24 8 -52 7 -29 0 -56
1 -60 3 -5 2 19 38 52 80 33 43 60 82 60 88 0 12 -129 14 -136 2z"/>
<path d="M1886 1517 c4 -6 21 -32 37 -55 16 -24 31 -60 32 -80 2 -21 4 -41 4
-45 1 -5 5 -6 10 -2 5 3 8 20 5 39 -3 26 4 44 37 89 23 33 35 57 27 57 -7 0
-26 -20 -41 -45 -16 -25 -30 -45 -32 -45 -2 0 -16 20 -32 45 -15 25 -34 47
-41 50 -8 3 -10 0 -6 -8z"/>
<path d="M2309 1518 c-35 -28 -54 -94 -39 -133 11 -28 44 -52 82 -59 32 -5 88
40 87 71 0 17 -1 17 -12 -1 -17 -28 -44 -49 -63 -52 -26 -4 -74 24 -75 44 0 9
-2 26 -4 36 -5 27 19 70 47 83 18 8 32 7 57 -3 18 -7 30 -18 27 -23 -4 -5 -2
-12 4 -16 16 -10 12 31 -5 45 -21 18 -87 23 -106 8z"/>
<path d="M2462 1512 c-5 -9 -8 -48 -7 -87 3 -92 4 -95 13 -95 4 0 7 19 7 42
l0 42 43 2 c45 1 54 -6 60 -46 4 -32 22 -51 22 -24 0 10 -4 35 -10 54 -5 18
-6 36 -2 39 14 11 13 58 -2 70 -9 7 -38 15 -66 17 -39 2 -51 0 -58 -14z m101
-9 c17 -4 23 -39 9 -58 -4 -5 -28 -11 -54 -12 l-46 -2 3 37 c2 20 3 38 4 40 1
4 63 0 84 -5z"/>
<path d="M2629 1508 c-1 -10 -2 -53 -2 -95 l-1 -78 62 -3 c34 -1 62 2 62 6 0
5 -22 8 -50 7 -27 -1 -50 1 -51 4 -11 74 -7 79 64 76 20 -1 37 2 37 6 0 4 -24
9 -52 11 -52 3 -53 4 -53 33 0 32 0 32 74 34 65 2 40 16 -30 17 -51 1 -59 -2
-60 -18z"/>
<path d="M2786 1511 c-30 -33 -17 -64 34 -81 70 -24 83 -34 75 -59 -6 -20 -13
-23 -55 -23 -36 0 -40 2 -52 27 -6 13 -15 22 -19 19 -9 -5 0 -34 16 -50 15
-15 85 -25 85 -12 0 5 4 7 10 3 14 -9 40 38 34 62 -6 20 -22 30 -64 40 -8 2
-19 5 -25 6 -22 5 -35 19 -35 37 0 35 62 41 97 8 28 -27 38 -21 15 10 -25 32
-92 39 -116 13z"/>
<path d="M2999 1520 c0 -3 -1 -45 -1 -95 l-1 -90 50 -2 c69 -3 107 28 107 85
0 50 -20 89 -48 99 -25 9 -106 11 -107 3z m109 -27 c12 -10 24 -34 27 -54 8
-45 -24 -86 -73 -93 -44 -6 -47 3 -43 127 1 35 3 37 35 37 19 0 43 -8 54 -17z"/>
<path d="M3192 1446 c-46 -119 -45 -116 -32 -116 6 0 8 5 5 10 -3 6 -2 10 3
10 5 0 12 9 15 20 4 16 14 20 45 20 36 0 70 -19 57 -32 -3 -3 1 -11 10 -18 22
-19 24 -10 7 30 -9 19 -16 40 -18 47 -1 7 -9 27 -18 44 -9 18 -16 38 -16 44 0
7 -6 15 -13 18 -9 3 -23 -21 -45 -77z m61 2 c15 -35 15 -36 -8 -41 -40 -7 -48
6 -31 48 18 43 18 43 39 -7z"/>
<path d="M3370 1435 c0 -95 16 -141 22 -63 3 42 4 43 40 44 48 1 56 -4 60 -44
2 -18 8 -33 13 -33 12 -1 7 61 -6 77 -5 6 -3 18 5 29 13 18 10 61 -5 71 -4 2
-35 7 -69 9 l-60 4 0 -94z m106 67 c16 -11 23 -37 14 -52 -4 -7 -28 -14 -54
-15 l-46 -3 0 39 c0 38 1 39 38 39 20 0 42 -4 48 -8z"/>
<path d="M3517 1523 c-4 -3 -2 -12 4 -20 6 -7 9 -13 6 -13 -3 0 7 -15 24 -32
29 -32 33 -46 29 -103 -1 -23 1 -27 10 -18 7 6 13 27 14 46 2 19 17 56 34 83
31 46 41 70 24 60 -5 -3 -21 -25 -37 -50 -22 -35 -32 -43 -42 -34 -7 6 -13 17
-13 25 0 8 -4 11 -10 8 -5 -3 -10 0 -10 7 -1 18 -26 49 -33 41z"/>
<path d="M2161 1503 c-5 -10 -10 -22 -11 -28 -3 -13 -9 -29 -32 -88 -20 -54
-21 -57 -10 -57 4 0 13 13 20 29 10 22 21 30 48 33 40 5 46 2 61 -34 7 -16 18
-28 24 -28 8 0 8 4 2 13 -6 6 -21 44 -34 82 -13 39 -27 72 -32 73 -4 2 -5 8
-1 13 3 5 -2 9 -10 9 -8 0 -20 -8 -25 -17z m48 -87 c-2 -2 -15 -6 -29 -8 -20
-2 -24 1 -22 17 9 64 22 75 40 31 8 -20 13 -38 11 -40z"/>
<path d="M3329 1515 c0 -3 -1 -25 -1 -50 0 -106 2 -138 10 -131 10 10 10 186
0 186 -4 0 -8 -2 -9 -5z"/>
<path d="M1745 1224 c-46 -43 -18 -114 45 -114 15 0 35 9 44 19 17 19 17 20
-2 30 -16 8 -21 7 -26 -5 -9 -25 -41 -12 -41 16 -1 32 12 40 47 33 48 -9 30
28 -19 40 -15 3 -31 -3 -48 -19z"/>
<path d="M2223 1243 c-7 -3 -13 -13 -13 -23 0 -10 -9 -20 -20 -23 -16 -4 -20
0 -20 20 0 19 -4 24 -22 21 -18 -3 -22 -9 -21 -43 2 -83 2 -85 23 -85 15 0 20
7 20 29 0 24 4 29 20 28 15 -1 20 -8 20 -29 0 -21 5 -28 20 -28 18 0 20 7 20
64 0 65 -5 77 -27 69z"/>
<path d="M2274 1241 c-11 -11 -2 -31 14 -31 15 0 18 -8 17 -50 -1 -45 1 -50
20 -50 18 0 22 7 24 47 3 55 7 64 26 56 9 -3 15 1 15 11 0 9 -6 16 -12 17 -67
3 -100 3 -104 0z"/>
<path d="M2798 1238 c-4 -11 13 -84 27 -120 10 -24 32 -12 46 25 l12 32 10
-32 c6 -21 16 -33 28 -33 21 0 26 7 34 46 17 83 17 84 -4 84 -20 0 -24 -6 -24
-42 0 -29 -14 -21 -20 11 -10 47 -34 46 -51 -2 -12 -36 -15 -38 -15 -15 -1 15
-8 34 -17 42 -19 19 -21 20 -26 4z"/>
<path d="M2989 1212 c-2 -50 1 -95 6 -100 2 -3 11 -2 20 1 11 5 15 21 14 66
-1 49 -5 60 -20 64 -16 4 -19 -1 -20 -31z"/>
<path d="M1889 1213 c-36 -93 -39 -103 -23 -103 8 0 23 6 34 12 16 10 24 10
40 0 45 -28 51 -16 26 51 -18 46 -29 63 -45 65 -15 3 -24 -4 -32 -25z m41 -43
c0 -5 -4 -10 -10 -10 -5 0 -10 5 -10 10 0 6 5 10 10 10 6 0 10 -4 10 -10z"/>
<path d="M2014 1232 c-6 -4 -13 -15 -17 -25 -6 -15 1 -22 33 -35 51 -22 51
-36 0 -27 -34 6 -39 4 -34 -9 14 -36 105 -30 112 7 4 19 -25 60 -37 53 -3 -2
-15 0 -26 5 -14 6 -8 8 22 5 39 -3 41 -2 32 15 -10 19 -63 26 -85 11z"/>
<path d="M2417 1228 c-28 -22 -32 -73 -8 -97 50 -50 119 -9 112 66 -3 37 -69
56 -104 31z m62 -36 c12 -22 -12 -57 -33 -49 -12 5 -16 44 -7 65 4 9 32 -1 40
-16z"/>
<path d="M2544 1178 c1 -57 3 -63 23 -66 19 -3 21 1 17 22 -6 33 9 33 30 0 10
-14 25 -24 34 -22 14 3 17 15 18 66 1 53 -2 62 -17 62 -13 0 -19 -9 -21 -32
-4 -29 -5 -30 -13 -13 -13 30 -31 45 -53 45 -17 0 -19 -7 -18 -62z"/>
<path d="M2686 1142 c-2 -4 -1 -14 4 -22 4 -7 6 -19 3 -27 -3 -7 2 -13 11 -13
9 0 16 3 17 8 0 4 3 19 5 35 4 22 1 27 -15 27 -11 0 -22 -4 -25 -8z"/>
</g>
</svg>
